<svg width="16" height="15" viewBox="0 0 16 15" fill="none" xmlns="http://www.w3.org/2000/svg">
<path d="M12.555 0.00702755C11.472 0.00702755 10.5056 0.540318 9.87407 1.37399L8 3.54088V3.53385L6.12593 1.36696C5.49435 0.533291 4.52804 0 3.44498 0C1.54239 0 0 1.64505 0 3.6744C0 5.45759 1.41876 6.79042 2.44593 8.07084C3.46947 9.34644 4.49282 10.6218 5.51617 11.8974L7.81359 14.7607C7.87579 14.8382 7.9378 14.9155 8 14.993V15C8.0622 14.9225 8.12421 14.8452 8.18641 14.7677C8.95215 13.8133 9.71789 12.859 10.4838 11.9045C11.5072 10.6289 12.5307 9.35347 13.5541 8.07787C14.5812 6.79765 16 5.46482 16 3.68143C16 1.65208 14.4576 0.00702755 12.555 0.00702755Z" fill="#EC4899"/>
</svg>
