<svg width="81" height="48" viewBox="0 0 81 48" fill="none" xmlns="http://www.w3.org/2000/svg">
<path d="M5.00874 47.2153C4.88906 47.1854 4.69757 47.1704 4.43427 47.1704H1.57091C0.996442 47.1704 0.628423 47.0687 0.466854 46.8652C0.40103 46.7874 0.368117 46.6977 0.368117 46.5959C0.368117 46.3446 0.41599 46.1591 0.511734 46.0394C0.655351 46.0873 0.81692 46.1112 0.996442 46.1112C1.18195 46.1112 1.31958 46.0364 1.40934 45.8868C1.50509 45.7372 1.54997 45.459 1.54398 45.0521V39.1817C1.54398 38.6192 1.43926 38.2691 1.22982 38.1315C1.14604 38.0777 1.03534 38.0507 0.897705 38.0507C0.760072 38.0507 0.649367 38.0717 0.565591 38.1136C0.487798 38.1555 0.421974 38.1854 0.368117 38.2033C0.320245 38.2213 0.278357 38.2213 0.242452 38.2033C0.206548 38.1794 0.170644 38.1465 0.13474 38.1046C0.044979 38.0088 9.86829e-05 37.9101 9.86829e-05 37.8084C9.86829e-05 37.7007 0.0360029 37.59 0.107811 37.4763C0.185604 37.3566 0.308277 37.2219 0.47583 37.0723C0.643383 36.9168 0.834873 36.7761 1.0503 36.6505C1.53501 36.3692 2.01971 36.2286 2.50442 36.2286C3.037 36.2286 3.35715 36.5667 3.46486 37.2429C3.50076 37.4463 3.5247 37.6558 3.53667 37.8712C4.43427 37.1591 5.37377 36.6624 6.35515 36.3812C6.71419 36.2795 7.06127 36.2286 7.39638 36.2286C8.82058 36.2286 9.72118 36.7911 10.0982 37.9161C11.0317 37.1741 11.9802 36.6624 12.9436 36.3812C13.3086 36.2795 13.6796 36.2286 14.0566 36.2286C14.4336 36.2286 14.7956 36.2795 15.1427 36.3812C15.4958 36.4829 15.798 36.6475 16.0493 36.8749C16.5998 37.3656 16.8751 38.1136 16.8751 39.1189V45.1418C16.8751 45.6325 17.0427 45.9377 17.3778 46.0574C17.4735 46.0933 17.5872 46.1232 17.7188 46.1471C17.8505 46.1711 17.9702 46.201 18.0779 46.2369C18.1856 46.2668 18.2694 46.3027 18.3292 46.3446C18.4309 46.4224 18.4818 46.5481 18.4818 46.7216C18.4818 46.931 18.4339 47.0956 18.3382 47.2153C18.2185 47.1854 18.027 47.1704 17.7637 47.1704H14.9004C14.3259 47.1704 13.9579 47.0687 13.7963 46.8652C13.7305 46.7874 13.6976 46.6977 13.6976 46.5959C13.6976 46.3446 13.7454 46.1591 13.8412 46.0394C13.9848 46.0873 14.1434 46.1112 14.3169 46.1112C14.4905 46.1112 14.6221 46.0544 14.7119 45.9407C14.8076 45.821 14.8615 45.6026 14.8734 45.2854V39.7562C14.8734 38.7389 14.5712 38.1704 13.9669 38.0507C13.7813 38.0148 13.5599 37.9969 13.3026 37.9969C13.0513 37.9969 12.776 38.0298 12.4768 38.0956C12.1836 38.1555 11.9024 38.2392 11.6331 38.3469C11.1125 38.5564 10.6577 38.8227 10.2687 39.1458V45.1418C10.2687 45.6385 10.4363 45.9437 10.7714 46.0574C10.8671 46.0933 10.9808 46.1232 11.1125 46.1471C11.2441 46.1711 11.3608 46.201 11.4625 46.2369C11.5702 46.2668 11.654 46.3027 11.7139 46.3446C11.8156 46.4224 11.8665 46.5481 11.8665 46.7216C11.8665 46.937 11.8216 47.1016 11.7318 47.2153C11.6121 47.1854 11.4206 47.1704 11.1573 47.1704H8.29398C7.71951 47.1704 7.35149 47.0687 7.18993 46.8652C7.1241 46.7874 7.09119 46.6977 7.09119 46.5959C7.09119 46.3386 7.13607 46.1531 7.22583 46.0394C7.37543 46.0873 7.537 46.1112 7.71054 46.1112C7.88407 46.1112 8.01572 46.0484 8.10548 45.9227C8.20123 45.7971 8.25509 45.5667 8.26705 45.2316V39.7562C8.26705 38.7389 7.96486 38.1704 7.36047 38.0507C7.17497 38.0148 6.95056 37.9969 6.68727 37.9969C6.42397 37.9969 6.13673 38.0328 5.82556 38.1046C5.51439 38.1764 5.21818 38.2721 4.93693 38.3918C4.39837 38.6132 3.93461 38.8945 3.54564 39.2356V45.1418C3.54564 45.6325 3.71619 45.9377 4.05728 46.0574C4.14704 46.0933 4.25774 46.1232 4.38939 46.1471C4.52104 46.1711 4.64072 46.201 4.74844 46.2369C4.85615 46.2668 4.93993 46.3027 4.99977 46.3446C5.10149 46.4224 5.15236 46.5481 5.15236 46.7216C5.15236 46.931 5.10449 47.0956 5.00874 47.2153ZM21.8183 34.559C21.6149 34.559 21.4264 34.5291 21.2528 34.4693C21.0853 34.4035 20.9387 34.3107 20.813 34.191C20.5497 33.9397 20.4181 33.6016 20.4181 33.1767C20.4181 32.7698 20.5736 32.4257 20.8848 32.1445C21.184 31.8632 21.5431 31.7226 21.9619 31.7226C22.3808 31.7226 22.7159 31.8483 22.9673 32.0996C23.2186 32.3509 23.3443 32.692 23.3443 33.1229C23.3443 33.5298 23.1947 33.8739 22.8955 34.1551C22.6022 34.4244 22.2432 34.559 21.8183 34.559ZM21.2708 47.1704C20.3492 47.1704 19.8885 46.961 19.8885 46.5421C19.8885 46.3267 19.9363 46.1591 20.0321 46.0394C20.1757 46.0873 20.3074 46.1112 20.427 46.1112C20.9836 46.1112 21.2558 45.7582 21.2439 45.0521V39.0381C21.2439 38.6192 21.184 38.329 21.0643 38.1674C20.9506 37.9999 20.7442 37.9161 20.445 37.9161C20.2236 37.9161 20.0231 37.943 19.8436 37.9969C19.7359 38.0088 19.6581 37.9251 19.6102 37.7455C19.5683 37.584 19.5923 37.4433 19.682 37.3237C19.7718 37.198 19.9094 37.0693 20.0949 36.9377C20.2864 36.8001 20.4959 36.6804 20.7232 36.5787C21.2139 36.3453 21.6238 36.2286 21.953 36.2286C22.2821 36.2286 22.5244 36.2765 22.68 36.3722C22.8416 36.468 22.9643 36.5966 23.048 36.7582C23.1797 37.0215 23.2455 37.4463 23.2455 38.0328V45.2047C23.2635 45.6774 23.434 45.9646 23.7572 46.0664C23.8469 46.0963 23.9576 46.1232 24.0893 46.1471C24.2209 46.1711 24.3376 46.201 24.4393 46.2369C24.547 46.2668 24.6308 46.3027 24.6907 46.3446C24.7924 46.4224 24.8433 46.5481 24.8433 46.7216C24.8433 46.937 24.7984 47.1016 24.7086 47.2153C24.583 47.1854 24.3915 47.1704 24.1341 47.1704H21.2708ZM31.0252 47.2153C30.8995 47.1854 30.708 47.1704 30.4507 47.1704H27.4078C26.8334 47.1704 26.4653 47.0687 26.3038 46.8652C26.2379 46.7874 26.205 46.6977 26.205 46.5959C26.205 46.3446 26.2529 46.1591 26.3487 46.0394C26.4923 46.0873 26.6239 46.1112 26.7436 46.1112C26.8693 46.1112 26.974 46.0963 27.0578 46.0664C27.1415 46.0305 27.2074 45.9736 27.2552 45.8958C27.339 45.7522 27.3809 45.4709 27.3809 45.0521V39.1817C27.3809 38.6192 27.2762 38.2691 27.0667 38.1315C26.983 38.0777 26.8723 38.0507 26.7346 38.0507C26.597 38.0507 26.4863 38.0717 26.4025 38.1136C26.3247 38.1555 26.2589 38.1854 26.205 38.2033C26.1572 38.2213 26.1153 38.2213 26.0794 38.2033C26.0435 38.1794 26.0076 38.1465 25.9717 38.1046C25.8819 37.9969 25.837 37.8951 25.837 37.7994C25.837 37.6977 25.8729 37.59 25.9447 37.4763C26.0225 37.3566 26.1452 37.2219 26.3127 37.0723C26.4803 36.9168 26.6718 36.7761 26.8872 36.6505C27.3719 36.3692 27.8566 36.2286 28.3413 36.2286C28.8919 36.2286 29.218 36.5876 29.3197 37.3057C29.3496 37.5152 29.3676 37.7336 29.3736 37.961C30.2473 37.189 31.1479 36.6594 32.0754 36.3722C32.3866 36.2765 32.6678 36.2286 32.9191 36.2286C33.1764 36.2286 33.3859 36.2645 33.5475 36.3363C33.715 36.4081 33.8467 36.5068 33.9424 36.6325C34.1219 36.8779 34.2117 37.192 34.2117 37.575C34.2117 37.958 34.1937 38.2632 34.1578 38.4906C34.1219 38.718 34.077 38.9184 34.0232 39.092C33.9155 39.445 33.8137 39.6694 33.718 39.7652C33.5504 39.9387 33.326 40.0255 33.0448 40.0255C32.7576 40.0255 32.6139 39.9417 32.6139 39.7741C32.6139 39.1338 32.587 38.7239 32.5332 38.5444C32.4314 38.2153 32.2399 38.0507 31.9587 38.0507C31.6774 38.0507 31.4231 38.0836 31.1957 38.1495C30.9683 38.2093 30.7469 38.2931 30.5315 38.4008C30.0947 38.6162 29.7117 38.8945 29.3826 39.2356V45.2047C29.4005 45.6774 29.607 45.9646 30.0019 46.0664C30.1156 46.0963 30.2443 46.1232 30.3879 46.1471C30.5315 46.1711 30.6542 46.201 30.7559 46.2369C30.8636 46.2668 30.9474 46.3027 31.0072 46.3446C31.109 46.4224 31.1598 46.5481 31.1598 46.7216C31.1598 46.937 31.1149 47.1016 31.0252 47.2153ZM41.74 46.0305C40.8663 46.9041 39.8102 47.341 38.5715 47.341C37.614 47.341 36.8481 47.0657 36.2736 46.5152C35.6931 45.9586 35.4029 45.2376 35.4029 44.3519C35.4029 43.2509 35.8936 42.4251 36.875 41.8745C37.7606 41.3719 39.0083 41.1205 40.618 41.1205H41.74C41.746 40.8931 41.749 40.6717 41.749 40.4563V39.7831C41.749 38.9812 41.6323 38.4158 41.3989 38.0866C41.1356 37.7156 40.6868 37.5301 40.0525 37.5301C38.5984 37.5301 37.8504 38.0507 37.8085 39.092C37.8025 39.2535 37.8055 39.3882 37.8175 39.4959C37.6978 39.5916 37.4943 39.6395 37.2071 39.6395C36.9259 39.6395 36.7194 39.6066 36.5878 39.5408C36.4621 39.4749 36.3514 39.3852 36.2556 39.2715C36.0522 39.0381 35.9505 38.7419 35.9505 38.3828C35.9505 38.0178 36.0552 37.7007 36.2646 37.4314C36.48 37.1561 36.7703 36.9317 37.1353 36.7582C37.8474 36.4051 38.6882 36.2286 39.6576 36.2286C40.627 36.2286 41.354 36.3243 41.8388 36.5158C42.3294 36.7013 42.7184 36.9497 43.0056 37.2608C43.5143 37.8114 43.7686 38.5504 43.7686 39.4779L43.6788 43.7864C43.6788 44.5703 43.7147 45.067 43.7866 45.2765C43.8643 45.4859 43.9541 45.6265 44.0558 45.6983C44.1636 45.7701 44.2922 45.806 44.4418 45.806C44.5974 45.806 44.7231 45.7821 44.8188 45.7342L45.0701 45.6176C45.1539 45.5876 45.2257 45.6235 45.2856 45.7253C45.3514 45.821 45.3843 45.9078 45.3843 45.9856C45.3843 46.0574 45.3514 46.1531 45.2856 46.2728C45.2257 46.3925 45.109 46.5211 44.9355 46.6588C44.7679 46.7904 44.5765 46.9071 44.361 47.0088C43.1702 47.5713 42.3594 47.4397 41.9285 46.6139C41.8388 46.4523 41.7759 46.2578 41.74 46.0305ZM41.7131 44.8546C41.7131 43.9929 41.7191 43.1372 41.731 42.2874C40.4864 42.3353 39.6396 42.4161 39.1908 42.5298C38.748 42.6375 38.4278 42.7422 38.2304 42.8439C38.0329 42.9457 37.8773 43.0654 37.7636 43.203C37.5781 43.4304 37.4854 43.7745 37.4854 44.2352C37.4854 44.69 37.6469 45.0551 37.9701 45.3303C38.2932 45.5996 38.757 45.7342 39.3614 45.7342C40.2171 45.7342 41.001 45.441 41.7131 44.8546ZM49.4299 37.4852C50.3275 36.6475 51.3299 36.2286 52.4369 36.2286C53.6576 36.2286 54.651 36.6505 55.417 37.4942C56.2547 38.4038 56.6736 39.6724 56.6736 41.3001C56.6736 43.1312 56.0991 44.6152 54.9502 45.7522C53.8671 46.8114 52.5865 47.341 51.1084 47.341C50.145 47.341 49.1846 47.1225 48.2271 46.6857C47.916 46.5481 47.6497 46.3895 47.4283 46.21V33.9307C47.4283 33.5178 47.3864 33.2515 47.3026 33.1318C47.1769 32.9404 46.9555 32.8446 46.6384 32.8446C46.4947 32.8446 46.3601 32.8596 46.2344 32.8895C46.1088 32.9134 46.022 32.9134 45.9741 32.8895C45.9263 32.8596 45.8844 32.8207 45.8485 32.7728C45.7228 32.5813 45.8724 32.33 46.2973 32.0188C46.9555 31.5341 47.6048 31.2918 48.2451 31.2918C48.9273 31.2918 49.3102 31.6598 49.394 32.3958C49.4179 32.6172 49.4299 32.8506 49.4299 33.0959V37.4852ZM49.4299 38.9124V45.2047C49.9924 45.6714 50.6656 45.9048 51.4495 45.9048C52.3771 45.9048 53.131 45.5607 53.7115 44.8725C54.3279 44.1425 54.636 43.1402 54.636 41.8656C54.636 40.5251 54.3638 39.5168 53.8192 38.8406C53.3345 38.2243 52.6553 37.9161 51.7816 37.9161C50.914 37.9161 50.1301 38.2482 49.4299 38.9124ZM58.2149 42.2156C58.2149 41.4856 58.2867 40.8303 58.4303 40.2499C58.5739 39.6694 58.7714 39.1578 59.0227 38.715C59.2741 38.2721 59.5703 37.8951 59.9114 37.584C60.2525 37.2668 60.6175 37.0095 61.0065 36.812C61.7664 36.4231 62.6012 36.2286 63.5108 36.2286C64.6777 36.2286 65.668 36.6535 66.4819 37.5032C67.3854 38.4367 67.8372 39.6694 67.8372 41.2013C67.8372 43.212 67.2897 44.7768 66.1946 45.8958C65.2432 46.8592 64.1032 47.341 62.7747 47.341C61.3864 47.341 60.2734 46.8533 59.4356 45.8779C58.6218 44.9384 58.2149 43.7176 58.2149 42.2156ZM63.3043 45.8779C63.7053 45.8779 64.0643 45.7851 64.3815 45.5996C64.6986 45.4081 64.9679 45.1478 65.1893 44.8187C65.6321 44.1365 65.8535 43.2509 65.8535 42.1618C65.8535 40.965 65.6202 39.9477 65.1534 39.1099C64.6268 38.1465 63.8698 37.6648 62.8825 37.6648C62.0866 37.6648 61.4493 37.9699 60.9705 38.5803C60.4619 39.2266 60.2076 40.1302 60.2076 41.2911C60.2076 42.7452 60.5277 43.8941 61.168 44.7379C61.7425 45.4979 62.4546 45.8779 63.3043 45.8779ZM69.5042 42.2156C69.5042 41.4856 69.576 40.8303 69.7196 40.2499C69.8632 39.6694 70.0607 39.1578 70.312 38.715C70.5634 38.2721 70.8596 37.8951 71.2007 37.584C71.5418 37.2668 71.9068 37.0095 72.2958 36.812C73.0557 36.4231 73.8905 36.2286 74.8001 36.2286C75.967 36.2286 76.9573 36.6535 77.7712 37.5032C78.6747 38.4367 79.1265 39.6694 79.1265 41.2013C79.1265 43.212 78.579 44.7768 77.4839 45.8958C76.5325 46.8592 75.3925 47.341 74.064 47.341C72.6757 47.341 71.5627 46.8533 70.7249 45.8779C69.9111 44.9384 69.5042 43.7176 69.5042 42.2156ZM74.5936 45.8779C74.9946 45.8779 75.3536 45.7851 75.6708 45.5996C75.9879 45.4081 76.2572 45.1478 76.4786 44.8187C76.9214 44.1365 77.1428 43.2509 77.1428 42.1618C77.1428 40.965 76.9095 39.9477 76.4427 39.1099C75.9161 38.1465 75.1591 37.6648 74.1718 37.6648C73.3759 37.6648 72.7386 37.9699 72.2599 38.5803C71.7512 39.2266 71.4969 40.1302 71.4969 41.2911C71.4969 42.7452 71.817 43.8941 72.4573 44.7379C73.0318 45.4979 73.7439 45.8779 74.5936 45.8779Z" fill="#334155"/>
<path d="M34.8218 12.9255C34.8218 5.78696 39.162 0 44.5159 0C49.8699 0 54.2101 5.78696 54.2101 12.9255L54.2101 21.9734C54.2101 24.8288 52.474 27.1436 50.3324 27.1436C49.6976 27.1436 49.0985 26.9403 48.5696 26.5797C48.3001 26.396 48.0313 26.1946 47.7613 25.9924C46.811 25.2807 45.8467 24.5585 44.7919 24.5585H44.24C43.1851 24.5585 42.2208 25.2807 41.2706 25.9924C41.0006 26.1946 40.7317 26.396 40.4622 26.5797C39.9333 26.9403 39.3342 27.1436 38.6994 27.1436C36.5579 27.1436 34.8218 24.8288 34.8218 21.9734V12.9255Z" fill="#9333EA"/>
<path d="M23.189 12.9255C23.189 5.78696 27.5292 0 32.8831 0C35.0655 0 37.0794 0.961517 38.6996 2.58416V27.1436C38.0648 27.1436 37.4657 26.9403 36.9368 26.5797C36.6673 26.396 36.3985 26.1946 36.1285 25.9924L36.1284 25.9924C35.1782 25.2807 34.2139 24.5585 33.1591 24.5585H32.6072C31.5523 24.5585 30.588 25.2807 29.6378 25.9924L29.6378 25.9924C29.3678 26.1946 29.0989 26.396 28.8294 26.5797C28.3005 26.9403 27.7014 27.1436 27.0666 27.1436C24.9251 27.1436 23.189 24.8288 23.189 21.9734V12.9255Z" fill="#A855F7"/>
<path d="M29.4902 9.69385C29.4902 8.08767 30.9443 6.7856 32.8832 6.7856C34.822 6.7856 36.2761 8.08767 36.2761 9.69385" stroke="#334155" stroke-width="1.93883" stroke-linecap="round"/>
<circle cx="44.5161" cy="8.72462" r="4.52394" fill="white"/>
<circle cx="44.516" cy="8.72473" r="2.57922" fill="#334155"/>
<path d="M32.883 14.0942C34.7065 15.8527 39.5979 18.9121 44.5754 17.0823" stroke="#334155" stroke-width="1.93883" stroke-linecap="round"/>
</svg>
